# xmcd
#
# Track frame offsets:
#	150
#	28415
#	52480
#	91310
#
# Disc length: 1741 seconds
#
# Revision: 0
# Processed by: cddbd v1.5.1PL2 Copyright (c) Steve Scherf et al.
# Submitted via: dBpowerAMP V4.0
#
DISCID=3706cb04
DTITLE=R. Kelly - U Saved Me/Happy People
DYEAR=2004
DGENRE=R&B
TTITLE0=U Saved Me - Album Version
TTITLE1=U Saved Me - Radio Edit
TTITLE2=Happy People - Album Version
TTITLE3=DATA
EXTD=
EXTT0=
EXTT1=
EXTT2=
EXTT3=
PLAYORDER=
